# xmcd CD database file
#
# Track frame offsets:
#	150
#	15946
#	28812
#	44171
#	64405
#	90690
#	103356
#	118053
#	139211
#	157360
#	174099
#	192191
#	208991
#
# Disc length: 3005 seconds
#
# Revision: 0
# Processed by: cddbd v1.5.2PL0 Copyright (c) Steve Scherf et al.
# Submitted via: CDex 1.51
#
DISCID=c50bbb0d
DTITLE=Barry Cuda - Early American Piano Blues
DYEAR=2001
DGENRE=Blues
TTITLE0=Lonesome Mama
TTITLE1=Farrish Street Jive
TTITLE2=Henry Brown Blues
TTITLE3=The Ma Grinder
TTITLE4=State Street Special
TTITLE5=31 Blues
TTITLE6=Cow Cow Blues
TTITLE7=Spanish Swat
TTITLE8=Mamie's Blues
TTITLE9=Chicago Stomp
TTITLE10=Hersal Blues
TTITLE11=Suitcase Blues
TTITLE12=West Dallas Drag
EXTD=YEAR: 2001
EXTT0=
EXTT1=
EXTT2=
EXTT3=
EXTT4=
EXTT5=
EXTT6=
EXTT7=
EXTT8=
EXTT9=
EXTT10=
EXTT11=
EXTT12=
PLAYORDER=
